{
    "asset" : {
        "generator" : "Khronos glTF Blender I/O v1.0.5",
        "version" : "2.0"
    },
    "scene" : 0,
    "scenes" : [
        {
            "name" : "Scene",
            "nodes" : [
                0
            ]
        }
    ],
    "nodes" : [
        {
            "mesh" : 0,
            "name" : "node-0"
        }
    ],
    "materials" : [
        {
            "doubleSided" : true,
            "name" : "Mat_COLOR_0",
            "pbrMetallicRoughness" : {
                "metallicFactor" : 0,
                "roughnessFactor" : 1
            }
        }
    ],
    "meshes" : [
        {
            "name" : "buffer-0-mesh-0.003",
            "primitives" : [
                {
                    "attributes" : {
                        "POSITION" : 0,
                        "NORMAL" : 1,
                        "TEXCOORD_0" : 2,
                        "COLOR_0" : 3
                    },
                    "indices" : 4,
                    "material" : 0
                }
            ]
        }
    ],
    "accessors" : [
        {
            "bufferView" : 0,
            "componentType" : 5126,
            "count" : 471,
            "max" : [
                0.4451861083507538,
                1.8361729383468628,
                0.607261061668396
            ],
            "min" : [
                -0.6671856045722961,
                -2.195238435476199e-09,
                -0.5603955984115601
            ],
            "type" : "VEC3"
        },
        {
            "bufferView" : 1,
            "componentType" : 5126,
            "count" : 471,
            "type" : "VEC3"
        },
        {
            "bufferView" : 2,
            "componentType" : 5126,
            "count" : 471,
            "type" : "VEC2"
        },
        {
            "bufferView" : 3,
            "componentType" : 5126,
            "count" : 471,
            "type" : "VEC4"
        },
        {
            "bufferView" : 4,
            "componentType" : 5123,
            "count" : 471,
            "type" : "SCALAR"
        }
    ],
    "bufferViews" : [
        {
            "buffer" : 0,
            "byteLength" : 5652,
            "byteOffset" : 0
        },
        {
            "buffer" : 0,
            "byteLength" : 5652,
            "byteOffset" : 5652
        },
        {
            "buffer" : 0,
            "byteLength" : 3768,
            "byteOffset" : 11304
        },
        {
            "buffer" : 0,
            "byteLength" : 7536,
            "byteOffset" : 15072
        },
        {
            "buffer" : 0,
            "byteLength" : 942,
            "byteOffset" : 22608
        }
    ],
    "buffers" : [
        {
            "byteLength" : 23552,
            "uri" : "data:application/octet-stream;base64,"
        }
    ]
}
